<svg width="82" height="73" viewBox="0 0 82 73" fill="none" xmlns="http://www.w3.org/2000/svg">
<path d="M18.8585 9.31865C18.7912 10.6848 18.56 11.8029 18.2994 12.921C18.0808 13.85 17.837 14.7706 17.6521 15.708C17.4923 16.5066 17.5008 17.3221 17.6689 18.125C17.7362 18.4444 17.8917 18.7513 18.043 19.0455C18.1817 19.3188 18.4297 19.4491 18.745 19.4575C19.6109 19.4785 20.3255 19.2179 20.8131 18.4444C21.2965 17.6794 21.5445 16.8387 21.679 15.9644C21.7799 15.3296 21.7883 14.6823 21.8514 14.0434C21.9228 13.333 21.9817 12.6184 22.091 11.9122C22.2591 10.8529 22.4231 9.79364 22.6711 8.75538C22.9065 7.78437 23.2343 6.83438 23.5496 5.8886C23.6925 5.45984 23.9069 5.05631 24.0918 4.64437C24.3567 4.05167 24.7517 3.54305 25.1469 3.03443C25.3823 2.73178 25.6765 2.49218 26.0506 2.35346C26.7862 2.08024 27.5093 1.76077 28.3163 1.75237C28.4592 1.75237 28.6022 1.74396 28.7451 1.75237C29.4134 1.80701 29.7917 2.1559 29.88 2.82005C29.9431 3.29505 29.9221 3.76584 29.796 4.23663C29.5059 5.32113 29.0982 6.35939 28.5854 7.35562C28.0977 8.30561 27.5681 9.23878 27.1225 10.2098C26.5677 11.4204 26.0212 12.6436 25.9035 13.9971C25.8615 14.4721 25.7522 14.9429 25.7522 15.4137C25.7438 16.3427 26.2104 17.0447 26.946 17.5701C27.2823 17.8097 27.6732 17.7803 28.0389 17.6163C28.3415 17.4776 28.6232 17.2969 28.846 17.0405C29.9179 15.8088 30.6324 14.4175 30.8762 12.7823C31.0234 11.7945 31.2125 10.8025 31.4858 9.84408C31.9776 8.10804 32.482 6.3678 33.3101 4.74945C33.9952 3.40434 34.7897 2.13488 35.9541 1.14706C36.2441 0.903261 36.5678 0.69729 36.883 0.478708C37.8582 -0.198054 38.8629 -0.0929668 39.8633 0.394638C40.3677 0.642644 40.662 1.03777 40.683 1.63887C40.6998 2.1559 40.6116 2.63089 40.3215 3.06806C39.9642 3.6019 39.6153 4.14415 39.2454 4.66959C38.6443 5.5271 37.997 6.35519 37.4211 7.22531C36.2946 8.92352 35.4118 10.7394 34.9915 12.7487C34.8401 13.4717 34.8149 14.2241 34.9705 14.9555C35.1512 15.7836 35.5505 16.5192 36.1474 17.1245C36.5215 17.507 37.0386 17.5869 37.543 17.5239C38.1105 17.4524 38.5561 17.1497 38.8587 16.6369C39.1866 16.0779 39.4514 15.4936 39.6448 14.8799C40.0945 13.4759 40.5022 12.0551 40.9772 10.6596C41.3219 9.64652 41.7633 8.66711 42.1416 7.66668C42.7133 6.14922 43.6507 4.86295 44.6763 3.63133C45.1177 3.10169 45.6011 2.60567 46.1475 2.17692C46.5511 1.86586 46.9882 1.60945 47.4674 1.47493C48.409 1.20591 49.3548 1.21432 50.2417 1.71033C50.7588 2.00037 50.9563 2.46696 50.9227 3.02602C50.9017 3.43796 50.7419 3.81208 50.4771 4.13574C50.0568 4.65277 49.649 5.18241 49.2245 5.69944C48.2114 6.93107 47.169 8.14167 46.1727 9.3859C45.2774 10.5082 44.546 11.7399 44.0878 13.1102C43.9239 13.6062 43.7768 14.1064 43.7684 14.6445C43.7599 15.254 43.8356 15.8299 44.1635 16.3595C44.3989 16.742 44.5712 17.1708 44.8234 17.5407C45.1849 18.0703 45.6515 18.4528 46.3619 18.4192C46.6352 18.4066 46.8705 18.3225 47.0933 18.1712C47.7028 17.7593 48.1442 17.196 48.4931 16.5697C49.1068 15.4684 49.6575 14.3418 50.082 13.1438C50.5192 11.9122 51.0068 10.689 51.6373 9.53723C52.3393 8.25937 53.1211 7.03195 54.1426 5.98528C54.8404 5.26648 55.6306 4.64857 56.5806 4.26605C56.8454 4.16097 57.0766 4.13154 57.3372 4.22822C57.7828 4.39636 58.2536 4.51406 58.6697 4.72844C59.3212 5.06472 59.7837 5.58595 59.7164 6.372C59.6786 6.79235 59.5525 7.2085 59.3255 7.58681C58.8379 8.4149 58.2157 9.13369 57.5726 9.83988C56.6731 10.8277 55.7651 11.8071 54.8656 12.7907C54.2014 13.5179 53.655 14.3292 53.3565 15.2708C53.0245 16.3133 52.8941 17.3725 53.3859 18.4108C53.4868 18.621 53.6214 18.8269 53.7769 19.0035C54.1846 19.4575 54.5923 19.5079 55.1178 19.2095C55.6222 18.9236 56.0426 18.5201 56.4083 18.0871C57.022 17.3599 57.6147 16.6117 58.0855 15.7794C58.3335 15.3465 58.5731 14.9051 58.8211 14.4721C59.3843 13.4927 60.0905 12.6352 60.99 11.9416C61.3515 11.6642 61.7425 11.4414 62.1712 11.2817C62.4907 11.1598 62.8186 11.1051 63.1549 11.164C63.7559 11.2691 64.2856 11.5297 64.7522 11.9248C65.265 12.362 65.2987 13.0135 65.0759 13.4927C64.9288 13.8122 64.727 14.1274 64.479 14.3712C63.7686 15.0732 63.0288 15.75 62.2805 16.4141C61.814 16.8303 61.4272 17.3095 61.0699 17.8181C60.9606 17.9736 60.8682 18.1418 60.7967 18.3183C60.4142 19.2221 60.8009 19.7811 61.4819 20.0838C62.5285 20.5504 63.6004 20.6639 64.7438 20.2561C65.9712 19.819 66.8876 19.0371 67.6736 18.0577C68.0603 17.5785 68.4008 17.0531 68.7329 16.5318C69.2541 15.7037 69.83 14.9135 70.4605 14.1695C71.6123 12.7991 72.8313 11.4919 74.2437 10.3863C75.2441 9.60028 76.3286 8.96976 77.5602 8.60405C77.9596 8.48636 78.342 8.44852 78.7456 8.61246C79.1869 8.79321 79.6452 8.92352 80.0907 9.09166C80.2463 9.15051 80.3975 9.23037 80.5279 9.33546C81.0953 9.78103 81.3266 10.3611 80.9819 11.1009C80.6792 11.7567 80.2504 12.3283 79.8007 12.8832C78.7834 14.1443 77.7325 15.3801 76.7573 16.6706C75.904 17.8013 75.3408 19.0792 75.0423 20.4831C74.7691 21.7568 74.8742 22.9884 75.1852 24.2326C75.4963 25.4727 76.0512 26.595 76.7406 27.6627C77.5392 28.9069 78.4429 30.0713 79.3719 31.223C80.015 32.0175 80.654 32.8246 81.0533 33.7872C81.1079 33.9175 81.2004 34.0436 81.2172 34.1781C81.2887 34.7456 81.2971 35.0902 80.6414 35.5106C80.0277 35.9015 79.3509 35.973 78.6531 35.973C77.4005 35.9688 76.2655 35.5652 75.1937 34.9515C73.7434 34.1192 72.6169 32.9254 71.524 31.6854C70.7169 30.7691 70.0444 29.756 69.334 28.7724C68.4513 27.5492 67.4298 26.4521 66.2865 25.4685C65.7989 25.0481 65.2734 24.6782 64.6765 24.4176C64.5462 24.3587 64.4075 24.2789 64.2772 24.2789C63.2726 24.2831 62.2805 24.3587 61.3642 24.8379C60.6201 25.2247 60.5193 25.9182 60.8303 26.4605C61.0783 26.8934 61.3348 27.3306 61.6542 27.7089C62.3814 28.5622 63.1633 29.3693 63.8947 30.2184C64.2982 30.685 64.6933 31.1726 65.0128 31.698C65.7232 32.854 65.6013 33.1188 64.9077 34.0814C64.6681 34.4177 64.3528 34.6741 63.9451 34.7876C63.6635 34.8675 63.386 34.8759 63.1044 34.7708C62.5622 34.569 62.0536 34.3 61.6542 33.8754C61.0994 33.2827 60.5529 32.6858 60.0485 32.0553C59.0606 30.8279 58.2578 29.4702 57.3666 28.1713C56.9925 27.6248 56.568 27.1078 56.135 26.5992C55.9375 26.368 55.681 26.1746 55.4288 26.0023C54.7731 25.5525 53.9786 25.8804 53.6592 26.3638C53.1926 27.0742 53.0329 27.8392 53.2304 28.6799C53.3986 29.3861 53.7432 30.0124 54.1131 30.6219C54.6176 31.4626 55.2817 32.1898 55.887 32.9549C56.8748 34.2075 57.9341 35.4097 58.8337 36.7338C59.0606 37.0659 59.2666 37.419 59.4432 37.7847C59.9182 38.7557 59.7122 39.2139 59.0859 39.7519C58.8883 39.9201 58.7118 40.126 58.4932 40.2647C57.5264 40.8911 56.5554 40.8196 55.597 40.2311C54.9581 39.8402 54.441 39.3063 53.9829 38.7263C53.0917 37.5997 52.3687 36.3723 51.7045 35.1029C51.0614 33.8754 50.5612 32.5892 49.9601 31.3449C49.628 30.6598 49.317 29.962 48.9429 29.2978C48.6528 28.7808 48.2871 28.3058 47.934 27.8224C47.6776 27.4693 47.3161 27.2213 46.9378 27.0195C46.4166 26.7421 45.8827 26.7421 45.3909 27.1162C44.6259 27.7005 44.2224 28.4992 44.1131 29.4281C43.9996 30.416 44.1929 31.3744 44.5586 32.2991C45.0925 33.6611 45.8785 34.8801 46.6562 36.1117C47.2488 37.0491 47.9887 37.8393 48.7789 38.6002C49.5524 39.3442 50.2754 40.1386 50.8176 41.076C50.9605 41.3198 51.0908 41.5846 51.1623 41.8537C51.3388 42.4884 51.0908 43.0643 50.5024 43.3585C49.3674 43.9344 48.2114 43.9386 47.0639 43.3879C46.4754 43.1063 45.9878 42.686 45.5254 42.232C44.6805 41.4081 44.0374 40.4329 43.4363 39.4282C42.4737 37.8267 41.7675 36.1075 41.1286 34.363C40.7124 33.2239 40.4056 32.0427 40.0567 30.8783C39.8465 30.168 39.6321 29.466 39.216 28.8397C38.9848 28.495 38.6905 28.2259 38.3501 27.999C37.4589 27.4021 36.0591 27.8686 35.6052 28.6925C35.1302 29.5627 34.9368 30.4706 34.9999 31.4458C35.0671 32.4841 35.3782 33.4635 35.8322 34.3883C36.303 35.3509 36.8326 36.284 37.3328 37.234C37.6985 37.9318 38.1609 38.5623 38.6485 39.1844C39.2496 39.9537 39.8044 40.7608 40.3341 41.5804C40.6031 41.9966 40.7797 42.4758 40.9646 42.9382C41.1412 43.3879 41.0319 43.8293 40.8049 44.2454C40.6115 44.5901 40.2584 44.7078 39.9222 44.8129C38.287 45.3173 36.8872 44.897 35.6766 43.7074C34.4913 42.5514 33.722 41.1349 33.0579 39.651C32.5997 38.6254 32.2676 37.5535 31.9566 36.4774C31.8052 35.9562 31.759 35.4013 31.6959 34.8591C31.5152 33.3164 31.2504 31.7863 30.5568 30.3823C30.1995 29.6593 29.7287 28.9952 29.073 28.4782C28.6106 28.1125 28.0935 27.8981 27.5387 27.7467C27.3621 27.7005 27.2066 27.7215 27.0637 27.8224C26.3785 28.3016 25.9666 28.9489 25.8993 29.7812C25.8531 30.3739 25.8993 30.9624 26.0675 31.5467C26.492 33.0137 27.0259 34.4387 27.648 35.8259C28.0347 36.6918 28.5559 37.4988 28.9889 38.3479C29.4849 39.3274 29.9515 40.3236 30.1154 41.4207C30.1659 41.7444 30.1785 42.0891 30.128 42.4127C30.044 42.976 29.7287 43.3543 29.1402 43.4972C27.8371 43.8167 26.7274 43.4342 25.7942 42.543C25.3865 42.1521 25.0586 41.6687 24.7476 41.1895C23.9615 39.9789 23.4781 38.638 23.0914 37.255C22.7047 35.8763 22.4357 34.4765 22.2339 33.0558C22.133 32.3454 22.0909 31.635 22.0027 30.9246C21.8724 29.8611 21.6874 28.806 21.2377 27.8182C20.893 27.0658 20.3675 26.5193 19.5857 26.2335C19.5394 26.2167 19.4974 26.1915 19.4512 26.1831C18.5726 25.9981 18.106 26.099 17.8496 27.0826C17.7319 27.5324 17.7404 27.9821 17.7782 28.4319C17.8539 29.3357 17.9757 30.231 18.1733 31.1179C18.4423 32.3033 18.7576 33.4803 18.9678 34.6741C19.1485 35.7082 19.1401 36.7674 18.8753 37.7973C18.766 38.2218 18.5306 38.5833 18.2111 38.8776C17.9799 39.092 17.7025 39.2181 17.3788 39.2517C16.6937 39.3232 16.0547 39.1802 15.4452 38.865C14.6087 38.4404 13.8521 37.9066 13.1795 37.2592C12.4734 36.5825 11.8134 35.8637 11.2249 35.0818C10.8508 34.59 10.4389 34.1276 10.0311 33.6611C8.80792 32.2571 7.52165 30.912 6.16813 29.6341C4.90288 28.4403 3.56617 27.3306 2.14539 26.3176C1.5569 25.8972 1.0567 25.397 0.640556 24.8085C0.531265 24.653 0.434572 24.489 0.337892 24.3251C-0.174934 23.4424 -0.0866456 22.5849 0.485029 21.7778C0.758256 21.3911 1.08191 21.0338 1.41398 20.6933C2.16641 19.9283 2.93986 19.1842 3.7091 18.436C5.05842 17.1203 6.32788 15.729 7.60574 14.346C8.31613 13.5768 9.00968 12.7907 9.70746 12.0047C9.91343 11.7735 10.1152 11.5381 10.3002 11.2901C10.8298 10.5839 11.4477 9.95337 12.0824 9.34387C12.9778 8.48636 13.8563 7.61623 14.8315 6.84699C14.8862 6.80076 14.9366 6.75032 14.9913 6.70408C16.101 5.83816 17.6605 6.10298 18.4045 7.30097C18.5642 7.55738 18.6861 7.86004 18.7408 8.15428C18.8248 8.59565 18.8332 9.05383 18.8543 9.28922L18.8585 9.31865Z" fill="#C02728"/>
<path d="M5.30458 67.8254V58.4026H6.70328V59.8259H6.80143C6.9732 59.3596 7.28403 58.9813 7.7339 58.6909C8.18378 58.4006 8.69091 58.2554 9.25529 58.2554C9.36163 58.2554 9.49455 58.2574 9.65405 58.2615C9.81355 58.2656 9.9342 58.2717 10.016 58.2799V59.7522C9.96691 59.74 9.85445 59.7216 9.67859 59.697C9.50682 59.6684 9.32482 59.6541 9.1326 59.6541C8.67455 59.6541 8.26557 59.7502 7.90567 59.9424C7.54986 60.1305 7.26767 60.3923 7.05909 60.7276C6.8546 61.0589 6.75236 61.4372 6.75236 61.8626V67.8254H5.30458ZM15.3961 68.0217C14.4882 68.0217 13.705 67.8213 13.0465 67.4206C12.3921 67.0157 11.8871 66.4513 11.5313 65.7274C11.1795 64.9994 11.0037 64.1528 11.0037 63.1876C11.0037 62.2225 11.1795 61.3718 11.5313 60.6356C11.8871 59.8954 12.3819 59.3187 13.0158 58.9057C13.6538 58.4885 14.3982 58.2799 15.2489 58.2799C15.7396 58.2799 16.2243 58.3617 16.7028 58.5253C17.1813 58.6889 17.6168 58.9547 18.0094 59.3228C18.4021 59.6868 18.7149 60.1694 18.948 60.7706C19.1812 61.3718 19.2977 62.112 19.2977 62.9913V63.6048H12.0343V62.3533H17.8254C17.8254 61.8217 17.7191 61.3472 17.5064 60.9301C17.2978 60.5129 16.9993 60.1837 16.6107 59.9424C16.2263 59.7011 15.7723 59.5805 15.2489 59.5805C14.6722 59.5805 14.1732 59.7236 13.752 60.0099C13.3348 60.2921 13.0138 60.6602 12.7889 61.1141C12.5639 61.5681 12.4514 62.0548 12.4514 62.5742V63.4085C12.4514 64.1201 12.5741 64.7233 12.8195 65.2182C13.069 65.709 13.4146 66.0832 13.8563 66.3409C14.298 66.5944 14.8112 66.7212 15.3961 66.7212C15.7764 66.7212 16.12 66.668 16.4267 66.5617C16.7375 66.4513 17.0054 66.2877 17.2303 66.0709C17.4553 65.8501 17.6291 65.5761 17.7518 65.2489L19.1505 65.6415C19.0033 66.1159 18.7558 66.5331 18.4082 66.893C18.0606 67.2488 17.6311 67.5269 17.1199 67.7273C16.6087 67.9236 16.0341 68.0217 15.3961 68.0217ZM25.0582 68.0217C24.2729 68.0217 23.5797 67.8234 22.9785 67.4267C22.3773 67.0259 21.907 66.4615 21.5675 65.7335C21.2281 65.0015 21.0584 64.1365 21.0584 63.1386C21.0584 62.1488 21.2281 61.29 21.5675 60.562C21.907 59.834 22.3794 59.2717 22.9846 58.875C23.5899 58.4783 24.2893 58.2799 25.0827 58.2799C25.6962 58.2799 26.1808 58.3822 26.5366 58.5867C26.8965 58.787 27.1705 59.0161 27.3587 59.2737C27.5509 59.5273 27.7002 59.7359 27.8065 59.8995H27.9292V55.2617H29.377V67.8254H27.9783V66.3777H27.8065C27.7002 66.5494 27.5488 66.7662 27.3525 67.0279C27.1562 67.2856 26.8761 67.5167 26.5121 67.7212C26.1481 67.9215 25.6634 68.0217 25.0582 68.0217ZM25.2545 66.7212C25.8352 66.7212 26.326 66.5699 26.7268 66.2672C27.1276 65.9605 27.4323 65.5372 27.6409 64.9974C27.8494 64.4534 27.9537 63.8256 27.9537 63.114C27.9537 62.4106 27.8515 61.7951 27.647 61.2675C27.4425 60.7358 27.1399 60.3228 26.7391 60.0283C26.3383 59.7297 25.8434 59.5805 25.2545 59.5805C24.641 59.5805 24.1298 59.7379 23.7208 60.0528C23.3159 60.3637 23.0112 60.7869 22.8067 61.3227C22.6063 61.8544 22.5061 62.4515 22.5061 63.114C22.5061 63.7847 22.6084 64.3941 22.8129 64.9422C23.0215 65.4861 23.3282 65.9196 23.7331 66.2427C24.1421 66.5617 24.6492 66.7212 25.2545 66.7212Z" fill="#C02627"/>
<path d="M31.613 58.4026V59.6295H26.5335V58.4026H31.613ZM28.0549 67.8254V57.1021C28.0549 56.5622 28.1817 56.1123 28.4352 55.7524C28.6888 55.3925 29.018 55.1226 29.4229 54.9427C29.8278 54.7627 30.2552 54.6727 30.7051 54.6727C31.0609 54.6727 31.3512 54.7014 31.5762 54.7586C31.8011 54.8159 31.9688 54.8691 32.0792 54.9181L31.6621 56.1696C31.5884 56.1451 31.4862 56.1144 31.3553 56.0776C31.2285 56.0408 31.0609 56.0224 30.8523 56.0224C30.3738 56.0224 30.0282 56.143 29.8155 56.3843C29.607 56.6256 29.5027 56.9794 29.5027 57.4456V67.8254H28.0549ZM33.642 67.8254V58.4026H35.0898V67.8254H33.642ZM34.3782 56.8321C34.096 56.8321 33.8526 56.736 33.6482 56.5438C33.4478 56.3516 33.3476 56.1205 33.3476 55.8506C33.3476 55.5807 33.4478 55.3496 33.6482 55.1574C33.8526 54.9652 34.096 54.8691 34.3782 54.8691C34.6604 54.8691 34.9017 54.9652 35.1021 55.1574C35.3066 55.3496 35.4088 55.5807 35.4088 55.8506C35.4088 56.1205 35.3066 56.3516 35.1021 56.5438C34.9017 56.736 34.6604 56.8321 34.3782 56.8321ZM44.416 60.5129L43.1155 60.881C43.0337 60.6643 42.913 60.4536 42.7535 60.2491C42.5981 60.0406 42.3854 59.8688 42.1155 59.7338C41.8456 59.5989 41.5 59.5314 41.0788 59.5314C40.5021 59.5314 40.0215 59.6643 39.6371 59.9301C39.2568 60.1919 39.0666 60.5252 39.0666 60.9301C39.0666 61.29 39.1975 61.5742 39.4592 61.7828C39.721 61.9914 40.1299 62.1652 40.6861 62.3043L42.0848 62.6478C42.9273 62.8523 43.5551 63.1651 43.9682 63.5864C44.3812 64.0036 44.5878 64.5414 44.5878 65.1998C44.5878 65.7397 44.4324 66.2222 44.1215 66.6476C43.8148 67.0729 43.3854 67.4083 42.8333 67.6537C42.2811 67.8991 41.6391 68.0217 40.907 68.0217C39.9459 68.0217 39.1504 67.8132 38.5206 67.396C37.8908 66.9789 37.492 66.3695 37.3243 65.5679L38.6985 65.2243C38.8294 65.7315 39.0768 66.1118 39.4408 66.3654C39.8089 66.619 40.2894 66.7457 40.8824 66.7457C41.5573 66.7457 42.093 66.6026 42.4897 66.3163C42.8905 66.0259 43.0909 65.6783 43.0909 65.2734C43.0909 64.9462 42.9764 64.6722 42.7474 64.4514C42.5184 64.2264 42.1666 64.0588 41.6922 63.9483L40.1217 63.5803C39.2588 63.3758 38.6249 63.0588 38.22 62.6294C37.8192 62.1959 37.6188 61.654 37.6188 61.0037C37.6188 60.472 37.7681 60.0017 38.0666 59.5927C38.3693 59.1838 38.7803 58.8627 39.2997 58.6296C39.8232 58.3965 40.4162 58.2799 41.0788 58.2799C42.0112 58.2799 42.7433 58.4844 43.275 58.8934C43.8107 59.3024 44.1911 59.8422 44.416 60.5129ZM48.2149 62.157V67.8254H46.7671V55.2617H48.2149V59.8749H48.3376C48.5584 59.3882 48.8897 59.0018 49.3314 58.7155C49.7772 58.4251 50.3702 58.2799 51.1104 58.2799C51.7525 58.2799 52.3149 58.4087 52.7975 58.6664C53.2801 58.92 53.6543 59.3105 53.9201 59.8381C54.19 60.3616 54.325 61.0282 54.325 61.838V67.8254H52.8772V61.9362C52.8772 61.1877 52.683 60.609 52.2944 60.2001C51.91 59.787 51.3763 59.5805 50.6933 59.5805C50.2189 59.5805 49.7935 59.6807 49.4173 59.8811C49.0451 60.0815 48.7507 60.3739 48.5339 60.7583C48.3212 61.1428 48.2149 61.609 48.2149 62.157Z" fill="white"/>
<path d="M62.5124 71.7487C61.813 71.7487 61.2118 71.6587 60.7088 71.4787C60.2057 71.3029 59.7865 71.0698 59.4512 70.7794C59.1199 70.4931 58.8561 70.1864 58.6598 69.8592L59.8131 69.0494C59.944 69.2212 60.1096 69.4175 60.31 69.6383C60.5104 69.8633 60.7844 70.0575 61.1321 70.2211C61.4838 70.3888 61.9439 70.4727 62.5124 70.4727C63.2731 70.4727 63.9008 70.2886 64.3957 69.9205C64.8906 69.5525 65.138 68.9758 65.138 68.1906V66.2766H65.0153C64.909 66.4483 64.7576 66.661 64.5613 66.9146C64.3691 67.164 64.091 67.3869 63.727 67.5832C63.3671 67.7755 62.8804 67.8716 62.267 67.8716C61.5063 67.8716 60.8233 67.6916 60.218 67.3317C59.6168 66.9718 59.1403 66.4483 58.7886 65.7612C58.441 65.0742 58.2672 64.2399 58.2672 63.2583C58.2672 62.2931 58.4369 61.4527 58.7764 60.737C59.1158 60.0172 59.5882 59.461 60.1935 59.0683C60.7987 58.6716 61.4981 58.4733 62.2915 58.4733C62.905 58.4733 63.3917 58.5755 63.7516 58.78C64.1155 58.9804 64.3937 59.2094 64.5859 59.4671C64.7822 59.7207 64.9335 59.9292 65.0398 60.0928H65.1871V58.596H66.5858V68.2887C66.5858 69.0985 66.4017 69.757 66.0337 70.2641C65.6697 70.7753 65.1789 71.1495 64.5613 71.3867C63.9479 71.628 63.2649 71.7487 62.5124 71.7487ZM62.4633 66.571C63.044 66.571 63.5348 66.4381 63.9356 66.1723C64.3364 65.9064 64.6411 65.524 64.8497 65.0251C65.0582 64.5261 65.1625 63.929 65.1625 63.2338C65.1625 62.5549 65.0603 61.9557 64.8558 61.4363C64.6513 60.9169 64.3487 60.51 63.9479 60.2155C63.5471 59.9211 63.0522 59.7738 62.4633 59.7738C61.8498 59.7738 61.3386 59.9292 60.9296 60.2401C60.5247 60.5509 60.22 60.968 60.0156 61.4915C59.8152 62.015 59.715 62.5958 59.715 63.2338C59.715 63.8881 59.8172 64.4668 60.0217 64.9699C60.2303 65.4688 60.537 65.8614 60.9419 66.1477C61.3509 66.4299 61.858 66.571 62.4633 66.571ZM73.064 68.2151C72.2133 68.2151 71.4669 68.0127 70.8248 67.6078C70.1868 67.2029 69.6879 66.6365 69.328 65.9085C68.9721 65.1805 68.7942 64.3298 68.7942 63.3565C68.7942 62.3749 68.9721 61.5181 69.328 60.786C69.6879 60.054 70.1868 59.4855 70.8248 59.0806C71.4669 58.6757 72.2133 58.4733 73.064 58.4733C73.9146 58.4733 74.659 58.6757 75.297 59.0806C75.9391 59.4855 76.438 60.054 76.7938 60.786C77.1537 61.5181 77.3337 62.3749 77.3337 63.3565C77.3337 64.3298 77.1537 65.1805 76.7938 65.9085C76.438 66.6365 75.9391 67.2029 75.297 67.6078C74.659 68.0127 73.9146 68.2151 73.064 68.2151ZM73.064 66.9146C73.7101 66.9146 74.2418 66.7489 74.659 66.4177C75.0761 66.0864 75.3849 65.6508 75.5853 65.111C75.7857 64.5711 75.8859 63.9863 75.8859 63.3565C75.8859 62.7266 75.7857 62.1398 75.5853 61.5958C75.3849 61.0519 75.0761 60.6122 74.659 60.2769C74.2418 59.9415 73.7101 59.7738 73.064 59.7738C72.4178 59.7738 71.8861 59.9415 71.469 60.2769C71.0518 60.6122 70.743 61.0519 70.5426 61.5958C70.3422 62.1398 70.242 62.7266 70.242 63.3565C70.242 63.9863 70.3422 64.5711 70.5426 65.111C70.743 65.6508 71.0518 66.0864 71.469 66.4177C71.8861 66.7489 72.4178 66.9146 73.064 66.9146Z" fill="#C02728"/>
</svg>
