<svg width="900" height="104" viewBox="0 0 900 104" fill="none" xmlns="http://www.w3.org/2000/svg">
<path d="M73.8876 49.144L73.8889 49.1427C73.8569 49.1147 73.7116 48.984 73.4876 48.78C73.3129 48.6227 73.1382 48.464 72.9636 48.3053C68.7942 44.5293 51.8169 29.1013 49.1582 26.5693C40.1542 17.9933 33.6702 9.86398 33.6702 0.985317H0.420898C0.420898 24.556 15.4356 40.952 30.9689 55.0307C33.4156 57.248 42.0196 65.3306 44.4342 67.452C58.6862 79.9706 70.9969 90.7813 70.9969 103.015H104.246C104.246 79.54 89.3529 63.184 73.8876 49.144Z" fill="white"/>
<path d="M202.665 36.0575C201.573 26.0268 195.575 21.1175 184.562 21.1175C174.857 21.1175 168.641 25.2628 168.641 31.5868C168.641 36.9321 172.459 40.0921 181.727 42.1655L193.505 44.7815C202.118 46.7441 206.481 48.6001 209.97 51.7601C213.786 55.1415 215.859 60.0495 215.859 65.7188C215.859 79.4588 204.737 87.9668 187.07 87.9668C168.203 87.9668 156.863 78.3695 155.338 60.9215H166.133C167.222 72.4801 174.857 78.9135 187.397 78.9135C197.865 78.9135 205.281 73.7895 205.281 66.4815C205.281 61.0295 201.355 57.4321 193.723 55.5788L177.365 51.6521C164.062 48.4895 158.063 42.6028 158.063 32.7868C158.063 20.0295 168.641 11.9601 185.325 11.9601C202.01 11.9601 210.953 19.7028 213.242 36.0575H202.665Z" fill="white"/>
<path d="M238.878 86.3301H228.844V33.6608H238.878V86.3301Z" fill="white"/>
<path d="M263.092 33.6607V40.3114C267.126 34.3141 270.834 32.2421 277.376 32.2421C284.355 32.2421 288.608 34.9687 291.008 41.0741C295.151 34.7501 299.514 32.2421 306.93 32.2421C312.49 32.2421 317.288 34.2061 319.907 37.6954C322.304 40.6394 323.286 44.4554 323.286 50.5607V86.3301H313.254V51.3274C313.254 44.4554 310.419 41.1847 304.53 41.1847C297.662 41.1847 293.406 46.2007 293.406 54.2687V86.3301H283.374V50.4527C283.374 44.4554 280.32 41.1847 274.65 41.1847C267.89 41.1847 263.528 46.0927 263.528 53.7247V86.3301H253.495V33.6607H263.092Z" fill="white"/>
<path d="M348.162 33.224V39.0026C353.067 34.2053 357.756 32.1333 364.191 32.1333C378.256 32.1333 387.526 43.2546 387.526 60.3773C387.526 77.0613 378.804 87.748 365.062 87.748C357.975 87.748 352.195 85.24 348.162 80.3333V103.015H338.127V33.224H348.162ZM347.614 59.6133C347.614 72.372 352.848 79.3507 362.554 79.3507C372.04 79.3507 377.386 72.372 377.386 59.94C377.386 47.508 372.04 40.5293 362.554 40.5293C353.067 40.5293 347.614 47.508 347.614 59.6133Z" fill="white"/>
<path d="M409.455 86.3301H399.42V13.5941H409.455V86.3301Z" fill="white"/>
<path d="M431.483 62.448C432.247 73.2454 437.699 79.3507 446.75 79.3507C452.965 79.3507 457.11 76.4067 459.51 70.1907H469.105C466.597 81.204 458.199 87.748 446.531 87.748C431.702 87.748 421.451 76.4067 421.451 59.9414C421.451 43.4747 431.483 32.2427 446.205 32.2427C456.673 32.2427 464.307 37.8027 467.797 47.9454C469.105 51.872 469.761 56.1254 469.867 62.448H431.483ZM459.399 55.1427C458.962 45.5454 454.165 40.2027 446.205 40.2027C438.026 40.2027 432.139 46.308 431.594 55.1427H459.399Z" fill="white"/>
<path d="M591.149 86.3307V80.3334C585.914 85.8934 581.66 87.748 574.465 87.748C568.249 87.748 563.122 85.6747 560.177 81.9667C557.669 78.696 556.688 74.988 556.688 68.8827V33.6614H566.722V68.12C566.722 75.3174 569.993 78.8067 576.862 78.8067C585.478 78.8067 590.712 73.7907 590.712 65.612V33.6614H600.744V86.3307H591.149Z" fill="white"/>
<path d="M625.07 33.6607V40.3114C629.105 34.3141 632.813 32.2421 639.354 32.2421C646.334 32.2421 650.586 34.9687 652.986 41.0741C657.129 34.7501 661.491 32.2421 668.907 32.2421C674.469 32.2421 679.266 34.2061 681.885 37.6954C684.282 40.6394 685.263 44.4554 685.263 50.5607V86.3301H675.231V51.3274C675.231 44.4554 672.397 41.1847 666.507 41.1847C659.639 41.1847 655.383 46.2007 655.383 54.2687V86.3301H645.353V50.4527C645.353 44.4554 642.299 41.1847 636.629 41.1847C629.867 41.1847 625.507 46.0927 625.507 53.7247V86.3301H615.473V33.6607H625.07Z" fill="white"/>
<path d="M699.997 13.5947H710.032V39.6587C715.048 34.532 720.17 32.2427 726.824 32.2427C740.456 32.2427 749.505 43.148 749.505 59.7214C749.505 76.9507 740.564 87.748 726.497 87.748C719.734 87.748 715.048 85.6747 710.032 80.4414V86.3307H699.997V13.5947ZM709.702 59.7214C709.702 72.372 714.937 79.3507 724.534 79.3507C734.021 79.3507 739.364 72.372 739.364 59.94C739.364 47.6187 734.021 40.64 724.534 40.64C715.156 40.64 709.702 47.6187 709.702 59.7214Z" fill="white"/>
<path d="M768.925 62.448C769.687 73.2454 775.141 79.3507 784.191 79.3507C790.406 79.3507 794.551 76.4067 796.951 70.1907H806.546C804.038 81.204 795.641 87.748 783.973 87.748C769.143 87.748 758.893 76.4067 758.893 59.9414C758.893 43.4747 768.925 32.2427 783.646 32.2427C794.114 32.2427 801.749 37.8027 805.238 47.9454C806.546 51.872 807.202 56.1254 807.31 62.448H768.925ZM796.841 55.1427C796.405 45.5454 791.606 40.2027 783.646 40.2027C775.467 40.2027 769.579 46.308 769.035 55.1427H796.841Z" fill="white"/>
<path d="M828.801 33.6607V41.9474C830.872 38.8954 831.747 37.6954 833.163 36.3874C835.561 33.8794 839.377 32.2421 842.541 32.2421C844.504 32.2421 846.357 32.6794 848.101 33.5501V42.6034C846.031 42.1661 844.941 42.0554 843.523 42.0554C835.452 42.0554 829.239 49.2527 829.239 58.6327V86.3301H819.204V33.6607H828.801Z" fill="white"/>
<path d="M887.692 49.7974C886.273 43.2547 882.676 40.5294 875.697 40.5294C869.7 40.5294 865.665 43.0374 865.665 46.7441C865.665 49.3627 867.518 51.108 871.77 52.1974L883.984 55.36C894.997 58.1947 899.578 62.776 899.578 70.8454C899.578 81.2027 891.073 87.748 877.66 87.748C863.373 87.748 854.868 80.7694 853.778 68.2267H863.702C864.246 75.2054 869.481 79.3507 877.878 79.3507C885.073 79.3507 889.762 76.1867 889.762 71.2814C889.762 67.792 887.473 65.9374 881.368 64.3027L870.9 61.684C865.336 60.2654 861.957 58.74 859.776 56.776C857.376 54.7054 855.849 51.2161 855.849 47.7267C855.849 38.6761 864.246 32.2414 876.133 32.2414C883.657 32.2414 889.873 34.7494 893.581 39.2214C895.87 42.0547 896.852 44.8921 897.286 49.7974H887.692Z" fill="white"/>
<path d="M530.509 14.0314V59.2874V62.4847C526.045 56.6941 520.55 51.1234 515.09 45.6354C504.478 34.9687 493.65 23.5034 493.65 13.5941H483.074V86.3301H492.888L493.402 37.2754C497.67 42.6407 502.777 47.8394 507.8 52.8887C518.848 63.9941 530.273 75.4767 530.273 86.3301H530.509H540.322V14.0314H530.509Z" fill="white"/>
<path d="M238.878 17.1903H228.844V27.2236H238.878V17.1903Z" fill="white"/>
<path d="M72.5703 33.9316H105.516V0.984984H72.5703V33.9316Z" fill="white"/>
<path d="M71.3027 33.9316H104.248V0.984984H71.3027V33.9316Z" fill="white"/>
<path d="M0.419922 103.015H33.3652V70.0693H0.419922V103.015Z" fill="white"/>
</svg>
